<?xml version="1.0" encoding="UTF-8" standalone="no"?>
<svg
   xmlns:dc="http://purl.org/dc/elements/1.1/"
   xmlns:cc="http://creativecommons.org/ns#"
   xmlns:rdf="http://www.w3.org/1999/02/22-rdf-syntax-ns#"
   xmlns:svg="http://www.w3.org/2000/svg"
   xmlns="http://www.w3.org/2000/svg"
   xmlns:sodipodi="http://sodipodi.sourceforge.net/DTD/sodipodi-0.dtd"
   xmlns:inkscape="http://www.inkscape.org/namespaces/inkscape"
   width="25"
   height="25"
   viewBox="0 0 25 25"
   version="1.1"
   id="svg3910"
   sodipodi:docname="sound.svg"
   inkscape:version="0.92.4 5da689c313, 2019-01-14">
  <metadata
     id="metadata3916">
    <rdf:RDF>
      <cc:Work
         rdf:about="">
        <dc:format>image/svg+xml</dc:format>
        <dc:type
           rdf:resource="http://purl.org/dc/dcmitype/StillImage" />
      </cc:Work>
    </rdf:RDF>
  </metadata>
  <defs
     id="defs3914" />
  <sodipodi:namedview
     pagecolor="#ffffff"
     bordercolor="#666666"
     borderopacity="1"
     objecttolerance="10"
     gridtolerance="10"
     guidetolerance="10"
     inkscape:pageopacity="0"
     inkscape:pageshadow="2"
     inkscape:window-width="1870"
     inkscape:window-height="1002"
     id="namedview3912"
     showgrid="false"
     inkscape:zoom="30.341309"
     inkscape:cx="7.8458756"
     inkscape:cy="12.384527"
     inkscape:window-x="25"
     inkscape:window-y="53"
     inkscape:window-maximized="0"
     inkscape:current-layer="svg3910" />
  <g
     transform="matrix(0.1615,0,0,0.1615,3.1541682,3.0492098)"
     id="g3908"
     style="fill:#4d4d4d;fill-opacity:1">
    <path
       d="m 57.57,8.464 c -1.412,0 -2.634,0.517 -3.666,1.548 l -27.13,27.13 H 5.428 c -1.413,0 -2.635,0.517 -3.667,1.548 -1.032,1.032 -1.548,2.255 -1.548,3.667 v 31.28 c 0,1.412 0.516,2.635 1.548,3.666 1.033,1.032 2.255,1.549 3.667,1.549 h 21.345 l 27.13,27.13 c 1.032,1.031 2.254,1.548 3.666,1.548 1.413,0 2.635,-0.517 3.667,-1.548 1.032,-1.031 1.548,-2.254 1.548,-3.666 v -88.64 c 0,-1.412 -0.516,-2.635 -1.547,-3.667 C 60.204,8.978 58.983,8.461 57.57,8.461"
       id="path3902"
       inkscape:connector-curvature="0" />
    <path
       d="m 90.61,69.53 c 2.309,-3.557 3.463,-7.399 3.463,-11.527 0,-4.128 -1.154,-7.988 -3.463,-11.573 -2.31,-3.585 -5.363,-6.11 -9.166,-7.577 -0.543,-0.271 -1.223,-0.407 -2.037,-0.407 -1.412,0 -2.635,0.503 -3.666,1.507 -1.031,1.01 -1.549,2.241 -1.549,3.707 0,1.141 0.326,2.105 0.979,2.893 0.652,0.788 1.439,1.467 2.363,2.037 0.922,0.57 1.846,1.195 2.77,1.874 0.924,0.679 1.711,1.643 2.363,2.892 0.65,1.25 0.977,2.798 0.977,4.645 0,1.847 -0.326,3.395 -0.977,4.645 -0.652,1.25 -1.439,2.213 -2.363,2.893 -0.924,0.679 -1.848,1.304 -2.77,1.874 -0.924,0.569 -1.711,1.249 -2.363,2.036 -0.652,0.789 -0.979,1.752 -0.979,2.893 0,1.467 0.518,2.702 1.549,3.707 1.031,1 2.254,1.508 3.666,1.508 0.814,0 1.494,-0.136 2.037,-0.406 3.803,-1.523 6.857,-4.063 9.166,-7.621"
       id="path3904"
       inkscape:connector-curvature="0" />
    <path
       d="m 108,81.02 c 4.617,-7.03 6.926,-14.705 6.926,-23.02 0,-8.311 -2.309,-15.982 -6.926,-23.02 -4.617,-7.03 -10.729,-12.152 -18.332,-15.357 -0.705,-0.271 -1.412,-0.407 -2.117,-0.407 -1.412,0 -2.635,0.516 -3.668,1.548 -1.031,1.032 -1.547,2.254 -1.547,3.666 0,2.119 1.059,3.721 3.178,4.808 3.041,1.575 5.105,2.77 6.191,3.584 4.02,2.934 7.156,6.613 9.41,11.04 2.254,4.427 3.381,9.139 3.381,14.14 0,4.997 -1.127,9.709 -3.381,14.14 -2.254,4.428 -5.391,8.106 -9.41,11.04 -1.086,0.815 -3.15,2.01 -6.191,3.585 -2.119,1.087 -3.178,2.689 -3.178,4.808 0,1.412 0.516,2.635 1.547,3.666 1.033,1.033 2.281,1.549 3.748,1.549 0.652,0 1.332,-0.137 2.037,-0.407 7.603,-3.206 13.715,-8.325 18.332,-15.359"
       id="path3906"
       inkscape:connector-curvature="0" />
  </g>
  <path
     style="fill:#f2f2f2;stroke-width:0.03295837"
     d="m 12.170013,20.354567 c -0.09067,-0.02542 -0.602036,-0.518296 -2.3894812,-2.30305 L 7.5064045,15.780813 5.660736,15.771513 c -1.8318888,-0.0092 -1.8466844,-0.0098 -1.9817277,-0.08208 -0.1766625,-0.0945 -0.3858385,-0.333837 -0.4349111,-0.497627 -0.055281,-0.184511 -0.055281,-5.3652269 0,-5.5497381 C 3.2931698,9.4782754 3.5023458,9.2389353 3.6790083,9.1444381 3.8140739,9.0721914 3.8285452,9.0715942 5.660736,9.0626763 l 1.8456685,-0.00898 2.2576482,-2.2557622 c 1.5770863,-1.5757688 2.2945863,-2.2710093 2.3801833,-2.306342 0.167942,-0.069323 0.472598,-0.063551 0.635507,0.012039 0.163083,0.075671 0.328686,0.2376198 0.422863,0.4135338 l 0.07151,0.1335772 v 7.3661949 7.366195 l -0.07177,0.134082 c -0.08567,0.160051 -0.304613,0.365263 -0.458146,0.429413 -0.125276,0.05234 -0.402188,0.05617 -0.57419,0.0079 z"
     id="path4742"
     inkscape:connector-curvature="0" />
  <path
     style="fill:#f2f2f2;stroke-width:0.03295837"
     d="m 15.671588,15.498737 c -0.318128,-0.138261 -0.510603,-0.422963 -0.510603,-0.755265 0,-0.353084 0.141793,-0.539776 0.683886,-0.900438 0.163144,-0.108543 0.359079,-0.261723 0.43541,-0.340402 0.524253,-0.540372 0.529446,-1.626521 0.01035,-2.165007 -0.07423,-0.077 -0.271626,-0.230928 -0.43867,-0.342068 -0.549709,-0.365739 -0.690976,-0.550795 -0.690976,-0.90516 0,-0.1615728 0.01941,-0.2393459 0.09391,-0.3762223 0.229623,-0.421893 0.663063,-0.5394717 1.171058,-0.3176712 0.867574,0.3787996 1.533286,1.1898025 1.799759,2.1925535 0.116937,0.44004 0.123937,1.161375 0.01549,1.596037 -0.25723,1.030976 -0.988929,1.918765 -1.879738,2.280733 -0.231067,0.09389 -0.518061,0.107582 -0.689876,0.03291 z"
     id="path4744"
     inkscape:connector-curvature="0" />
  <path
     style="fill:#f2f2f2;stroke-width:0.03295837"
     d="m 17.143343,18.648951 c -0.446354,-0.0898 -0.746451,-0.538415 -0.654964,-0.979108 0.06865,-0.330691 0.171825,-0.423255 0.938494,-0.841985 1.117838,-0.610529 1.917819,-1.554545 2.33638,-2.757038 C 20.564564,11.768712 19.593017,9.2034026 17.47631,8.0322934 16.641915,7.5706479 16.557346,7.4962329 16.488116,7.1627538 16.368942,6.5887001 16.89316,6.0641126 17.462981,6.1872004 c 0.237979,0.051406 0.902012,0.3908716 1.303335,0.6662876 0.992639,0.6812189 1.704866,1.5185386 2.272177,2.6712537 0.743308,1.5103213 0.862302,3.3347743 0.325208,4.9861893 -0.234249,0.720251 -0.712997,1.58934 -1.211715,2.199669 -0.620876,0.759825 -1.504459,1.440548 -2.345901,1.807309 -0.306032,0.13339 -0.480045,0.167798 -0.662742,0.131042 z"
     id="path4746"
     inkscape:connector-curvature="0" />
  <path
     style="fill:#ffffff;stroke-width:0.03295837"
     d="m 12.004674,20.206463 c -0.09577,-0.08482 -1.142149,-1.11189 -2.3252816,-2.282367 L 7.5282423,15.795955 7.2239941,15.774925 c -0.1673369,-0.01157 -0.9790712,-0.02277 -1.8038543,-0.0249 -0.9588042,-0.0025 -1.5457471,-0.01668 -1.6275528,-0.0394 -0.152568,-0.04236 -0.4186081,-0.281163 -0.5035972,-0.452036 -0.057329,-0.115262 -0.060581,-0.26777 -0.060581,-2.840865 0,-2.5730961 0.00325,-2.7256044 0.060581,-2.840866 C 3.3756378,9.4026489 3.6411659,9.1656905 3.7930503,9.127031 3.865333,9.1086329 4.6936004,9.0885992 5.7058855,9.0807647 L 7.491237,9.0669472 9.6444104,6.9402657 C 10.828656,5.770591 11.884579,4.7359364 11.990907,4.6410333 l 0.193324,-0.1725512 0.289806,0.011377 c 0.266405,0.010458 0.300028,0.01961 0.416406,0.1133423 0.06963,0.056081 0.174988,0.1673157 0.234127,0.2471878 0.05914,0.079872 0.118465,0.1600532 0.131834,0.1781803 0.03178,0.043093 0.03178,14.7552135 0,14.7983065 -0.01337,0.01813 -0.07319,0.0997 -0.13293,0.181271 -0.05974,0.08157 -0.180254,0.196514 -0.267804,0.255427 -0.145996,0.09824 -0.18062,0.107115 -0.418023,0.107115 h -0.258842 z"
     id="path74"
     inkscape:connector-curvature="0" />
  <path
     style="fill:#ffffff;stroke-width:0.03295837"
     d="M 15.604275,15.448409 C 15.3395,15.284628 15.214913,15.09409 15.185359,14.807742 c -0.03555,-0.344473 0.112292,-0.558502 0.649548,-0.940318 0.17225,-0.122414 0.376889,-0.28723 0.454753,-0.366258 0.156184,-0.158517 0.302211,-0.427131 0.312928,-0.575626 0.0038,-0.05271 0.0187,-0.104537 0.0331,-0.115168 0.0144,-0.01063 0.03489,-0.123137 0.04552,-0.250013 0.03509,-0.418517 -0.08895,-0.874011 -0.316096,-1.16081 -0.05342,-0.06745 -0.265004,-0.242823 -0.470184,-0.389719 -0.425969,-0.304965 -0.595191,-0.467763 -0.668071,-0.642707 -0.139987,-0.336032 0.03221,-0.8005266 0.360933,-0.9735951 0.260997,-0.1374123 0.576369,-0.1081654 0.970443,0.089996 1.523415,0.7660551 2.176765,2.7373991 1.437518,4.3374021 -0.301731,0.653057 -0.824762,1.209737 -1.436541,1.528959 -0.254877,0.132994 -0.303786,0.146789 -0.55944,0.157806 -0.242607,0.01046 -0.295604,0.0025 -0.395501,-0.05928 z"
     id="path76"
     inkscape:connector-curvature="0" />
  <path
     style="fill:#ffffff;stroke-width:0.03295837"
     d="m 16.972047,18.568305 c -0.300848,-0.142227 -0.476448,-0.416956 -0.476448,-0.74541 0,-0.380327 0.133711,-0.526177 0.863982,-0.942417 0.539571,-0.307544 0.803172,-0.49926 1.173719,-0.853641 0.396071,-0.37879 0.72601,-0.833557 0.97659,-1.346067 0.235355,-0.481372 0.345002,-0.794031 0.451918,-1.288645 0.103766,-0.480049 0.103766,-1.468756 0,-1.948805 C 19.749562,10.461424 19.31037,9.6171769 18.654812,8.930916 18.284219,8.5429663 17.945609,8.2883309 17.329433,7.9342287 16.630717,7.5326925 16.494882,7.3807154 16.494335,6.999895 c -6.62e-4,-0.4612896 0.401271,-0.8378677 0.858947,-0.8047624 0.340593,0.024636 1.265043,0.5276317 1.857224,1.0105199 1.20547,0.9829884 2.070873,2.4506763 2.363437,4.0082915 0.0872,0.464253 0.119475,1.443698 0.06363,1.931088 -0.114809,1.002063 -0.428708,1.907535 -0.967903,2.792016 -0.636293,1.043756 -1.579168,1.922115 -2.626479,2.446761 -0.558019,0.279537 -0.786766,0.318937 -1.071147,0.184496 z"
     id="path78"
     inkscape:connector-curvature="0" />
</svg>
