<?xml version="1.0" encoding="UTF-8" standalone="no"?>
<svg
   xmlns:dc="http://purl.org/dc/elements/1.1/"
   xmlns:cc="http://creativecommons.org/ns#"
   xmlns:rdf="http://www.w3.org/1999/02/22-rdf-syntax-ns#"
   xmlns:svg="http://www.w3.org/2000/svg"
   xmlns="http://www.w3.org/2000/svg"
   xmlns:sodipodi="http://sodipodi.sourceforge.net/DTD/sodipodi-0.dtd"
   xmlns:inkscape="http://www.inkscape.org/namespaces/inkscape"
   width="25"
   height="25"
   viewBox="0 0 25 25"
   version="1.1"
   id="svg3910"
   sodipodi:docname="Antu_kdenlive-show-audio.svg"
   inkscape:version="0.92.4 5da689c313, 2019-01-14">
  <metadata
     id="metadata3916">
    <rdf:RDF>
      <cc:Work
         rdf:about="">
        <dc:format>image/svg+xml</dc:format>
        <dc:type
           rdf:resource="http://purl.org/dc/dcmitype/StillImage" />
      </cc:Work>
    </rdf:RDF>
  </metadata>
  <defs
     id="defs3914" />
  <sodipodi:namedview
     pagecolor="#ffffff"
     bordercolor="#666666"
     borderopacity="1"
     objecttolerance="10"
     gridtolerance="10"
     guidetolerance="10"
     inkscape:pageopacity="0"
     inkscape:pageshadow="2"
     inkscape:window-width="1870"
     inkscape:window-height="1002"
     id="namedview3912"
     showgrid="false"
     inkscape:zoom="30.341309"
     inkscape:cx="7.8458756"
     inkscape:cy="9.7478579"
     inkscape:window-x="25"
     inkscape:window-y="53"
     inkscape:window-maximized="0"
     inkscape:current-layer="svg3910" />
  <g
     transform="matrix(.1615 0 0 .1615 1.704 1.632)"
     fill-opacity="1"
     fill="#4d4d4d"
     id="g3908">
    <path
       d="m57.57 8.464c-1.412 0-2.634.517-3.666 1.548l-27.13 27.13h-21.346c-1.413 0-2.635.517-3.667 1.548-1.032 1.032-1.548 2.255-1.548 3.667v31.28c0 1.412.516 2.635 1.548 3.666 1.033 1.032 2.255 1.549 3.667 1.549h21.345l27.13 27.13c1.032 1.031 2.254 1.548 3.666 1.548 1.413 0 2.635-.517 3.667-1.548 1.032-1.031 1.548-2.254 1.548-3.666v-88.64c0-1.412-.516-2.635-1.547-3.667-1.033-1.031-2.254-1.548-3.667-1.548"
       id="path3902" />
    <path
       d="m90.61 69.53c2.309-3.557 3.463-7.399 3.463-11.527 0-4.128-1.154-7.988-3.463-11.573-2.31-3.585-5.363-6.11-9.166-7.577-.543-.271-1.223-.407-2.037-.407-1.412 0-2.635.503-3.666 1.507-1.031 1.01-1.549 2.241-1.549 3.707 0 1.141.326 2.105.979 2.893.652.788 1.439 1.467 2.363 2.037.922.57 1.846 1.195 2.77 1.874.924.679 1.711 1.643 2.363 2.892.65 1.25.977 2.798.977 4.645 0 1.847-.326 3.395-.977 4.645-.652 1.25-1.439 2.213-2.363 2.893-.924.679-1.848 1.304-2.77 1.874-.924.569-1.711 1.249-2.363 2.036-.652.789-.979 1.752-.979 2.893 0 1.467.518 2.702 1.549 3.707 1.031 1 2.254 1.508 3.666 1.508.814 0 1.494-.136 2.037-.406 3.803-1.523 6.857-4.063 9.166-7.621"
       id="path3904" />
    <path
       d="m108 81.02c4.617-7.03 6.926-14.705 6.926-23.02 0-8.311-2.309-15.982-6.926-23.02-4.617-7.03-10.729-12.152-18.332-15.357-.705-.271-1.412-.407-2.117-.407-1.412 0-2.635.516-3.668 1.548-1.031 1.032-1.547 2.254-1.547 3.666 0 2.119 1.059 3.721 3.178 4.808 3.041 1.575 5.105 2.77 6.191 3.584 4.02 2.934 7.156 6.613 9.41 11.04 2.254 4.427 3.381 9.139 3.381 14.14 0 4.997-1.127 9.709-3.381 14.14-2.254 4.428-5.391 8.106-9.41 11.04-1.086.815-3.15 2.01-6.191 3.585-2.119 1.087-3.178 2.689-3.178 4.808 0 1.412.516 2.635 1.547 3.666 1.033 1.033 2.281 1.549 3.748 1.549.652 0 1.332-.137 2.037-.407 7.603-3.206 13.715-8.325 18.332-15.359"
       id="path3906" />
  </g>
  <path
     style="fill:#f2f2f2;stroke-width:0.03295837"
     d="m 10.719845,18.937357 c -0.09067,-0.02542 -0.602036,-0.518296 -2.3894814,-2.30305 L 6.0562363,14.363603 4.2105678,14.354303 C 2.378679,14.345103 2.3638834,14.344503 2.2288401,14.272223 2.0521776,14.177723 1.8430016,13.938386 1.793929,13.774596 1.738648,13.590085 1.738648,8.4093693 1.793929,8.2248581 1.8430016,8.0610656 2.0521776,7.8217255 2.2288401,7.7272283 2.3639057,7.6549816 2.378377,7.6543844 4.2105678,7.6454665 L 6.0562363,7.6364865 8.3138845,5.3807243 C 9.8909707,3.8049555 10.608471,3.109715 10.694068,3.0743823 c 0.167942,-0.069323 0.472598,-0.063551 0.635507,0.012039 0.163083,0.075671 0.328686,0.2376198 0.422863,0.4135338 l 0.07151,0.1335772 v 7.3661947 7.366195 l -0.07177,0.134082 c -0.08567,0.160051 -0.304613,0.365263 -0.458146,0.429413 -0.125276,0.05234 -0.402188,0.05617 -0.57419,0.0079 z"
     id="path4742"
     inkscape:connector-curvature="0" />
  <path
     style="fill:#f2f2f2;stroke-width:0.03295837"
     d="m 14.22142,14.081527 c -0.318128,-0.138261 -0.510603,-0.422963 -0.510603,-0.755265 0,-0.353084 0.141793,-0.539776 0.683886,-0.900438 0.163144,-0.108543 0.359079,-0.261723 0.43541,-0.340402 0.524253,-0.540372 0.529446,-1.626521 0.01035,-2.1650071 -0.07423,-0.076998 -0.271626,-0.230928 -0.43867,-0.3420674 -0.549709,-0.3657395 -0.690976,-0.5507949 -0.690976,-0.9051606 0,-0.1615725 0.01941,-0.2393456 0.09391,-0.376222 0.229623,-0.421893 0.663063,-0.5394717 1.171058,-0.3176712 0.867574,0.3787996 1.533286,1.1898022 1.799759,2.1925533 0.116937,0.44004 0.123937,1.161375 0.01549,1.596037 -0.25723,1.030976 -0.988929,1.918765 -1.879738,2.280733 -0.231067,0.09389 -0.518061,0.107582 -0.689876,0.03291 z"
     id="path4744"
     inkscape:connector-curvature="0" />
  <path
     style="fill:#f2f2f2;stroke-width:0.03295837"
     d="m 15.693175,17.231741 c -0.446354,-0.0898 -0.746451,-0.538415 -0.654964,-0.979108 0.06865,-0.330691 0.171825,-0.423255 0.938494,-0.841985 1.117838,-0.610529 1.917819,-1.554545 2.33638,-2.757038 C 19.114396,10.351502 18.142849,7.7861928 16.026142,6.6150836 15.191747,6.1534381 15.107178,6.0790231 15.037948,5.745544 14.918774,5.1714903 15.442992,4.6469028 16.012813,4.7699906 c 0.237979,0.051406 0.902012,0.3908716 1.303335,0.6662876 0.992639,0.6812189 1.704866,1.5185386 2.272177,2.6712537 0.743308,1.5103211 0.862302,3.3347741 0.325208,4.9861891 -0.234249,0.720251 -0.712997,1.58934 -1.211715,2.199669 -0.620876,0.759825 -1.504459,1.440548 -2.345901,1.807309 -0.306032,0.13339 -0.480045,0.167798 -0.662742,0.131042 z"
     id="path4746"
     inkscape:connector-curvature="0" />
</svg>
